<svg xmlns="http://www.w3.org/2000/svg" width="1440" height="1700" viewBox="0 0 1440 1700" role="img"><title>Prepared HTTP cohorts - synthetic_repetition_pp2048</title><rect width="100%" height="100%" fill="white"/>
<text x="40" y="38" font-family="sans-serif" font-size="16" fill="#172b4d" text-anchor="start">Prepared HTTP cohorts - synthetic_repetition_pp2048</text>
<text x="40" y="66" font-family="sans-serif" font-size="16" fill="#43536a" text-anchor="start">Median and observed min/max. Separate scales start at zero; unavailable values are omitted.</text>
<text x="40" y="107" font-family="sans-serif" font-size="16" fill="#172b4d" text-anchor="start">Executed preparation prefill (per request)</text>
<text x="135" y="129" font-family="sans-serif" font-size="8" fill="#43536a" text-anchor="start">executed tokens/s; cache hits unavailable</text>
<path d="M135 375L1370 375" fill="none" stroke="#e1e6ed" stroke-width="2"/>
<text x="20" y="380" font-family="sans-serif" font-size="16" fill="#43536a" text-anchor="start">0</text>
<path d="M135 318L1370 318" fill="none" stroke="#e1e6ed" stroke-width="2"/>
<text x="20" y="323" font-family="sans-serif" font-size="16" fill="#43536a" text-anchor="start">0.25</text>
<path d="M135 260L1370 260" fill="none" stroke="#e1e6ed" stroke-width="2"/>
<text x="20" y="265" font-family="sans-serif" font-size="16" fill="#43536a" text-anchor="start">0.5</text>
<path d="M135 203L1370 203" fill="none" stroke="#e1e6ed" stroke-width="2"/>
<text x="20" y="208" font-family="sans-serif" font-size="16" fill="#43536a" text-anchor="start">0.75</text>
<path d="M135 145L1370 145" fill="none" stroke="#e1e6ed" stroke-width="2"/>
<text x="20" y="150" font-family="sans-serif" font-size="16" fill="#43536a" text-anchor="start">1</text>
<path d="M135 145L135 375" fill="none" stroke="#43536a" stroke-width="2"/>
<path d="M135 375L1370 375" fill="none" stroke="#43536a" stroke-width="2"/>
<text x="160" y="180" font-family="sans-serif" font-size="16" fill="#1769aa" text-anchor="start">LIE: unavailable (see summary.json)</text>
<path d="M135 449L159 449" fill="none" stroke="#1769aa" stroke-width="2"/>
<text x="167" y="455" font-family="sans-serif" font-size="16" fill="#1769aa" text-anchor="start">LIE</text>
<text x="160" y="206" font-family="sans-serif" font-size="16" fill="#b34b17" text-anchor="start">Gufo: unavailable (see summary.json)</text>
<path d="M535 449L559 449" fill="none" stroke="#b34b17" stroke-width="2"/>
<text x="567" y="455" font-family="sans-serif" font-size="16" fill="#b34b17" text-anchor="start">Gufo</text>
<text x="752" y="424" font-family="sans-serif" font-size="16" fill="#43536a" text-anchor="middle">Concurrent users</text>
<text x="752" y="400" font-family="sans-serif" font-size="8" fill="#43536a" text-anchor="middle">C1</text>
<text x="40" y="507" font-family="sans-serif" font-size="16" fill="#172b4d" text-anchor="start">Sum of individual server decode rates</text>
<text x="135" y="529" font-family="sans-serif" font-size="8" fill="#43536a" text-anchor="start">output tokens/s</text>
<path d="M135 775L1370 775" fill="none" stroke="#e1e6ed" stroke-width="2"/>
<text x="20" y="780" font-family="sans-serif" font-size="16" fill="#43536a" text-anchor="start">0</text>
<path d="M135 718L1370 718" fill="none" stroke="#e1e6ed" stroke-width="2"/>
<text x="20" y="723" font-family="sans-serif" font-size="16" fill="#43536a" text-anchor="start">3.0221</text>
<path d="M135 660L1370 660" fill="none" stroke="#e1e6ed" stroke-width="2"/>
<text x="20" y="665" font-family="sans-serif" font-size="16" fill="#43536a" text-anchor="start">6.0442</text>
<path d="M135 603L1370 603" fill="none" stroke="#e1e6ed" stroke-width="2"/>
<text x="20" y="608" font-family="sans-serif" font-size="16" fill="#43536a" text-anchor="start">9.0663</text>
<path d="M135 545L1370 545" fill="none" stroke="#e1e6ed" stroke-width="2"/>
<text x="20" y="550" font-family="sans-serif" font-size="16" fill="#43536a" text-anchor="start">12.088</text>
<path d="M135 545L135 775" fill="none" stroke="#43536a" stroke-width="2"/>
<path d="M135 775L1370 775" fill="none" stroke="#43536a" stroke-width="2"/>
<path d="M744 577L744 577" fill="none" stroke="#1769aa" stroke-width="2"/>
<path d="M739 577L749 577" fill="none" stroke="#1769aa" stroke-width="2"/>
<path d="M739 577L749 577" fill="none" stroke="#1769aa" stroke-width="2"/>
<circle cx="744" cy="577" r="4" fill="#1769aa"/>
<path d="M135 849L159 849" fill="none" stroke="#1769aa" stroke-width="2"/>
<text x="167" y="855" font-family="sans-serif" font-size="16" fill="#1769aa" text-anchor="start">LIE</text>
<path d="M760 576L760 575" fill="none" stroke="#b34b17" stroke-width="2"/>
<path d="M755 576L765 576" fill="none" stroke="#b34b17" stroke-width="2"/>
<path d="M755 575L765 575" fill="none" stroke="#b34b17" stroke-width="2"/>
<circle cx="760" cy="576" r="4" fill="#b34b17"/>
<path d="M535 849L559 849" fill="none" stroke="#b34b17" stroke-width="2"/>
<text x="567" y="855" font-family="sans-serif" font-size="16" fill="#b34b17" text-anchor="start">Gufo</text>
<text x="752" y="824" font-family="sans-serif" font-size="16" fill="#43536a" text-anchor="middle">Concurrent users</text>
<text x="752" y="800" font-family="sans-serif" font-size="8" fill="#43536a" text-anchor="middle">C1</text>
<text x="40" y="907" font-family="sans-serif" font-size="16" fill="#172b4d" text-anchor="start">Output / common complete HTTP wall</text>
<text x="135" y="929" font-family="sans-serif" font-size="8" fill="#43536a" text-anchor="start">output tokens/s</text>
<path d="M135 1175L1370 1175" fill="none" stroke="#e1e6ed" stroke-width="2"/>
<text x="20" y="1180" font-family="sans-serif" font-size="16" fill="#43536a" text-anchor="start">0</text>
<path d="M135 1118L1370 1118" fill="none" stroke="#e1e6ed" stroke-width="2"/>
<text x="20" y="1123" font-family="sans-serif" font-size="16" fill="#43536a" text-anchor="start">3.0216</text>
<path d="M135 1060L1370 1060" fill="none" stroke="#e1e6ed" stroke-width="2"/>
<text x="20" y="1065" font-family="sans-serif" font-size="16" fill="#43536a" text-anchor="start">6.0432</text>
<path d="M135 1003L1370 1003" fill="none" stroke="#e1e6ed" stroke-width="2"/>
<text x="20" y="1008" font-family="sans-serif" font-size="16" fill="#43536a" text-anchor="start">9.0647</text>
<path d="M135 945L1370 945" fill="none" stroke="#e1e6ed" stroke-width="2"/>
<text x="20" y="950" font-family="sans-serif" font-size="16" fill="#43536a" text-anchor="start">12.086</text>
<path d="M135 945L135 1175" fill="none" stroke="#43536a" stroke-width="2"/>
<path d="M135 1175L1370 1175" fill="none" stroke="#43536a" stroke-width="2"/>
<path d="M744 978L744 978" fill="none" stroke="#1769aa" stroke-width="2"/>
<path d="M739 978L749 978" fill="none" stroke="#1769aa" stroke-width="2"/>
<path d="M739 978L749 978" fill="none" stroke="#1769aa" stroke-width="2"/>
<circle cx="744" cy="978" r="4" fill="#1769aa"/>
<path d="M135 1249L159 1249" fill="none" stroke="#1769aa" stroke-width="2"/>
<text x="167" y="1255" font-family="sans-serif" font-size="16" fill="#1769aa" text-anchor="start">LIE</text>
<path d="M760 976L760 975" fill="none" stroke="#b34b17" stroke-width="2"/>
<path d="M755 976L765 976" fill="none" stroke="#b34b17" stroke-width="2"/>
<path d="M755 975L765 975" fill="none" stroke="#b34b17" stroke-width="2"/>
<circle cx="760" cy="976" r="4" fill="#b34b17"/>
<path d="M535 1249L559 1249" fill="none" stroke="#b34b17" stroke-width="2"/>
<text x="567" y="1255" font-family="sans-serif" font-size="16" fill="#b34b17" text-anchor="start">Gufo</text>
<text x="752" y="1224" font-family="sans-serif" font-size="16" fill="#43536a" text-anchor="middle">Concurrent users</text>
<text x="752" y="1200" font-family="sans-serif" font-size="8" fill="#43536a" text-anchor="middle">C1</text>
<text x="40" y="1307" font-family="sans-serif" font-size="16" fill="#172b4d" text-anchor="start">Mean request first output</text>
<text x="135" y="1329" font-family="sans-serif" font-size="8" fill="#43536a" text-anchor="start">seconds</text>
<path d="M135 1575L1370 1575" fill="none" stroke="#e1e6ed" stroke-width="2"/>
<text x="20" y="1580" font-family="sans-serif" font-size="16" fill="#43536a" text-anchor="start">0</text>
<path d="M135 1518L1370 1518" fill="none" stroke="#e1e6ed" stroke-width="2"/>
<text x="20" y="1523" font-family="sans-serif" font-size="16" fill="#43536a" text-anchor="start">0.033452</text>
<path d="M135 1460L1370 1460" fill="none" stroke="#e1e6ed" stroke-width="2"/>
<text x="20" y="1465" font-family="sans-serif" font-size="16" fill="#43536a" text-anchor="start">0.066905</text>
<path d="M135 1403L1370 1403" fill="none" stroke="#e1e6ed" stroke-width="2"/>
<text x="20" y="1408" font-family="sans-serif" font-size="16" fill="#43536a" text-anchor="start">0.10036</text>
<path d="M135 1345L1370 1345" fill="none" stroke="#e1e6ed" stroke-width="2"/>
<text x="20" y="1350" font-family="sans-serif" font-size="16" fill="#43536a" text-anchor="start">0.13381</text>
<path d="M135 1345L135 1575" fill="none" stroke="#43536a" stroke-width="2"/>
<path d="M135 1575L1370 1575" fill="none" stroke="#43536a" stroke-width="2"/>
<path d="M744 1376L744 1375" fill="none" stroke="#1769aa" stroke-width="2"/>
<path d="M739 1376L749 1376" fill="none" stroke="#1769aa" stroke-width="2"/>
<path d="M739 1375L749 1375" fill="none" stroke="#1769aa" stroke-width="2"/>
<circle cx="744" cy="1376" r="4" fill="#1769aa"/>
<path d="M135 1649L159 1649" fill="none" stroke="#1769aa" stroke-width="2"/>
<text x="167" y="1655" font-family="sans-serif" font-size="16" fill="#1769aa" text-anchor="start">LIE</text>
<path d="M760 1572L760 1571" fill="none" stroke="#b34b17" stroke-width="2"/>
<path d="M755 1572L765 1572" fill="none" stroke="#b34b17" stroke-width="2"/>
<path d="M755 1571L765 1571" fill="none" stroke="#b34b17" stroke-width="2"/>
<circle cx="760" cy="1572" r="4" fill="#b34b17"/>
<path d="M535 1649L559 1649" fill="none" stroke="#b34b17" stroke-width="2"/>
<text x="567" y="1655" font-family="sans-serif" font-size="16" fill="#b34b17" text-anchor="start">Gufo</text>
<text x="752" y="1624" font-family="sans-serif" font-size="16" fill="#43536a" text-anchor="middle">Concurrent users</text>
<text x="752" y="1600" font-family="sans-serif" font-size="8" fill="#43536a" text-anchor="middle">C1</text>
</svg>
