<svg xmlns="http://www.w3.org/2000/svg" width="1440" height="900" viewBox="0 0 1440 900" role="img"><title>LIE - direct executor benchmark</title><rect width="100%" height="100%" fill="white"/>
<text x="40" y="38" font-family="sans-serif" font-size="16" fill="#172b4d" text-anchor="start">LIE - direct executor benchmark</text>
<text x="40" y="66" font-family="sans-serif" font-size="16" fill="#43536a" text-anchor="start">Median and observed min/max. Separate scales start at zero; unavailable values are omitted.</text>
<text x="40" y="107" font-family="sans-serif" font-size="16" fill="#172b4d" text-anchor="start">Executed prefill</text>
<text x="135" y="129" font-family="sans-serif" font-size="8" fill="#43536a" text-anchor="start">new tokens/s</text>
<path d="M135 375L1370 375" fill="none" stroke="#e1e6ed" stroke-width="2"/>
<text x="20" y="380" font-family="sans-serif" font-size="16" fill="#43536a" text-anchor="start">0</text>
<path d="M135 318L1370 318" fill="none" stroke="#e1e6ed" stroke-width="2"/>
<text x="20" y="323" font-family="sans-serif" font-size="16" fill="#43536a" text-anchor="start">444.59</text>
<path d="M135 260L1370 260" fill="none" stroke="#e1e6ed" stroke-width="2"/>
<text x="20" y="265" font-family="sans-serif" font-size="16" fill="#43536a" text-anchor="start">889.18</text>
<path d="M135 203L1370 203" fill="none" stroke="#e1e6ed" stroke-width="2"/>
<text x="20" y="208" font-family="sans-serif" font-size="16" fill="#43536a" text-anchor="start">1333.8</text>
<path d="M135 145L1370 145" fill="none" stroke="#e1e6ed" stroke-width="2"/>
<text x="20" y="150" font-family="sans-serif" font-size="16" fill="#43536a" text-anchor="start">1778.4</text>
<path d="M135 145L135 375" fill="none" stroke="#43536a" stroke-width="2"/>
<path d="M135 375L1370 375" fill="none" stroke="#43536a" stroke-width="2"/>
<path d="M744 214L744 176" fill="none" stroke="#1769aa" stroke-width="2"/>
<path d="M739 214L749 214" fill="none" stroke="#1769aa" stroke-width="2"/>
<path d="M739 176L749 176" fill="none" stroke="#1769aa" stroke-width="2"/>
<circle cx="744" cy="177" r="4" fill="#1769aa"/>
<path d="M135 449L159 449" fill="none" stroke="#1769aa" stroke-width="2"/>
<text x="167" y="455" font-family="sans-serif" font-size="16" fill="#1769aa" text-anchor="start">LIE C17</text>
<path d="M760 212L760 175" fill="none" stroke="#b34b17" stroke-width="2"/>
<path d="M755 212L765 212" fill="none" stroke="#b34b17" stroke-width="2"/>
<path d="M755 175L765 175" fill="none" stroke="#b34b17" stroke-width="2"/>
<circle cx="760" cy="179" r="4" fill="#b34b17"/>
<path d="M535 449L559 449" fill="none" stroke="#b34b17" stroke-width="2"/>
<text x="567" y="455" font-family="sans-serif" font-size="16" fill="#b34b17" text-anchor="start">LIE C++ control</text>
<text x="752" y="424" font-family="sans-serif" font-size="16" fill="#43536a" text-anchor="middle">Full prompt tokens</text>
<text x="752" y="400" font-family="sans-serif" font-size="8" fill="#43536a" text-anchor="middle">1500 tokens</text>
<text x="40" y="507" font-family="sans-serif" font-size="16" fill="#172b4d" text-anchor="start">Confirmed generation</text>
<text x="135" y="529" font-family="sans-serif" font-size="8" fill="#43536a" text-anchor="start">output tokens/s</text>
<path d="M135 775L1370 775" fill="none" stroke="#e1e6ed" stroke-width="2"/>
<text x="20" y="780" font-family="sans-serif" font-size="16" fill="#43536a" text-anchor="start">0</text>
<path d="M135 718L1370 718" fill="none" stroke="#e1e6ed" stroke-width="2"/>
<text x="20" y="723" font-family="sans-serif" font-size="16" fill="#43536a" text-anchor="start">7.6612</text>
<path d="M135 660L1370 660" fill="none" stroke="#e1e6ed" stroke-width="2"/>
<text x="20" y="665" font-family="sans-serif" font-size="16" fill="#43536a" text-anchor="start">15.322</text>
<path d="M135 603L1370 603" fill="none" stroke="#e1e6ed" stroke-width="2"/>
<text x="20" y="608" font-family="sans-serif" font-size="16" fill="#43536a" text-anchor="start">22.984</text>
<path d="M135 545L1370 545" fill="none" stroke="#e1e6ed" stroke-width="2"/>
<text x="20" y="550" font-family="sans-serif" font-size="16" fill="#43536a" text-anchor="start">30.645</text>
<path d="M135 545L135 775" fill="none" stroke="#43536a" stroke-width="2"/>
<path d="M135 775L1370 775" fill="none" stroke="#43536a" stroke-width="2"/>
<path d="M744 615L744 576" fill="none" stroke="#1769aa" stroke-width="2"/>
<path d="M739 615L749 615" fill="none" stroke="#1769aa" stroke-width="2"/>
<path d="M739 576L749 576" fill="none" stroke="#1769aa" stroke-width="2"/>
<circle cx="744" cy="584" r="4" fill="#1769aa"/>
<path d="M135 849L159 849" fill="none" stroke="#1769aa" stroke-width="2"/>
<text x="167" y="855" font-family="sans-serif" font-size="16" fill="#1769aa" text-anchor="start">LIE C17</text>
<path d="M760 614L760 575" fill="none" stroke="#b34b17" stroke-width="2"/>
<path d="M755 614L765 614" fill="none" stroke="#b34b17" stroke-width="2"/>
<path d="M755 575L765 575" fill="none" stroke="#b34b17" stroke-width="2"/>
<circle cx="760" cy="588" r="4" fill="#b34b17"/>
<path d="M535 849L559 849" fill="none" stroke="#b34b17" stroke-width="2"/>
<text x="567" y="855" font-family="sans-serif" font-size="16" fill="#b34b17" text-anchor="start">LIE C++ control</text>
<text x="752" y="824" font-family="sans-serif" font-size="16" fill="#43536a" text-anchor="middle">Full prompt tokens</text>
<text x="752" y="800" font-family="sans-serif" font-size="8" fill="#43536a" text-anchor="middle">1500 tokens</text>
</svg>
